<?xml version='1.0' encoding='UTF-8'?>
<svg width="23.2mm" height="23.2mm" version="1.1" viewBox="0 0 23.2 23.2" xmlns="http://www.w3.org/2000/svg"><path d="M1.6,1.6H2.4V2.4H1.6zM2.4,1.6H3.2V2.4H2.4zM3.2,1.6H4V2.4H3.2zM4,1.6H4.8V2.4H4zM4.8,1.6H5.6V2.4H4.8zM5.6,1.6H6.4V2.4H5.6zM6.4,1.6H7.2V2.4H6.4zM8,1.6H8.8V2.4H8zM8.8,1.6H9.6V2.4H8.8zM9.6,1.6H10.4V2.4H9.6zM16,1.6H16.8V2.4H16zM16.8,1.6H17.6V2.4H16.8zM17.6,1.6H18.4V2.4H17.6zM18.4,1.6H19.2V2.4H18.4zM19.2,1.6H20V2.4H19.2zM20,1.6H20.8V2.4H20zM20.8,1.6H21.6V2.4H20.8zM1.6,2.4H2.4V3.2H1.6zM6.4,2.4H7.2V3.2H6.4zM10.4,2.4H11.2V3.2H10.4zM11.2,2.4H12V3.2H11.2zM14.4,2.4H15.2V3.2H14.4zM16,2.4H16.8V3.2H16zM20.8,2.4H21.6V3.2H20.8zM1.6,3.2H2.4V4H1.6zM3.2,3.2H4V4H3.2zM4,3.2H4.8V4H4zM4.8,3.2H5.6V4H4.8zM6.4,3.2H7.2V4H6.4zM8,3.2H8.8V4H8zM8.8,3.2H9.6V4H8.8zM11.2,3.2H12V4H11.2zM12,3.2H12.8V4H12zM14.4,3.2H15.2V4H14.4zM16,3.2H16.8V4H16zM17.6,3.2H18.4V4H17.6zM18.4,3.2H19.2V4H18.4zM19.2,3.2H20V4H19.2zM20.8,3.2H21.6V4H20.8zM1.6,4H2.4V4.8H1.6zM3.2,4H4V4.8H3.2zM4,4H4.8V4.8H4zM4.8,4H5.6V4.8H4.8zM6.4,4H7.2V4.8H6.4zM9.6,4H10.4V4.8H9.6zM10.4,4H11.2V4.8H10.4zM11.2,4H12V4.8H11.2zM12,4H12.8V4.8H12zM12.8,4H13.6V4.8H12.8zM16,4H16.8V4.8H16zM17.6,4H18.4V4.8H17.6zM18.4,4H19.2V4.8H18.4zM19.2,4H20V4.8H19.2zM20.8,4H21.6V4.8H20.8zM1.6,4.8H2.4V5.6H1.6zM3.2,4.8H4V5.6H3.2zM4,4.8H4.8V5.6H4zM4.8,4.8H5.6V5.6H4.8zM6.4,4.8H7.2V5.6H6.4zM8.8,4.8H9.6V5.6H8.8zM10.4,4.8H11.2V5.6H10.4zM11.2,4.8H12V5.6H11.2zM12,4.8H12.8V5.6H12zM12.8,4.8H13.6V5.6H12.8zM16,4.8H16.8V5.6H16zM17.6,4.8H18.4V5.6H17.6zM18.4,4.8H19.2V5.6H18.4zM19.2,4.8H20V5.6H19.2zM20.8,4.8H21.6V5.6H20.8zM1.6,5.6H2.4V6.4H1.6zM6.4,5.6H7.2V6.4H6.4zM8,5.6H8.8V6.4H8zM9.6,5.6H10.4V6.4H9.6zM10.4,5.6H11.2V6.4H10.4zM12,5.6H12.8V6.4H12zM16,5.6H16.8V6.4H16zM20.8,5.6H21.6V6.4H20.8zM1.6,6.4H2.4V7.2H1.6zM2.4,6.4H3.2V7.2H2.4zM3.2,6.4H4V7.2H3.2zM4,6.4H4.8V7.2H4zM4.8,6.4H5.6V7.2H4.8zM5.6,6.4H6.4V7.2H5.6zM6.4,6.4H7.2V7.2H6.4zM8,6.4H8.8V7.2H8zM9.6,6.4H10.4V7.2H9.6zM11.2,6.4H12V7.2H11.2zM12.8,6.4H13.6V7.2H12.8zM14.4,6.4H15.2V7.2H14.4zM16,6.4H16.8V7.2H16zM16.8,6.4H17.6V7.2H16.8zM17.6,6.4H18.4V7.2H17.6zM18.4,6.4H19.2V7.2H18.4zM19.2,6.4H20V7.2H19.2zM20,6.4H20.8V7.2H20zM20.8,6.4H21.6V7.2H20.8zM9.6,7.2H10.4V8H9.6zM10.4,7.2H11.2V8H10.4zM11.2,7.2H12V8H11.2zM12.8,7.2H13.6V8H12.8zM14.4,7.2H15.2V8H14.4zM1.6,8H2.4V8.8H1.6zM3.2,8H4V8.8H3.2zM6.4,8H7.2V8.8H6.4zM7.2,8H8V8.8H7.2zM10.4,8H11.2V8.8H10.4zM14.4,8H15.2V8.8H14.4zM16.8,8H17.6V8.8H16.8zM19.2,8H20V8.8H19.2zM20.8,8H21.6V8.8H20.8zM1.6,8.8H2.4V9.6H1.6zM3.2,8.8H4V9.6H3.2zM4,8.8H4.8V9.6H4zM4.8,8.8H5.6V9.6H4.8zM7.2,8.8H8V9.6H7.2zM8.8,8.8H9.6V9.6H8.8zM10.4,8.8H11.2V9.6H10.4zM12,8.8H12.8V9.6H12zM13.6,8.8H14.4V9.6H13.6zM14.4,8.8H15.2V9.6H14.4zM16,8.8H16.8V9.6H16zM16.8,8.8H17.6V9.6H16.8zM18.4,8.8H19.2V9.6H18.4zM20,8.8H20.8V9.6H20zM20.8,8.8H21.6V9.6H20.8zM3.2,9.6H4V10.4H3.2zM5.6,9.6H6.4V10.4H5.6zM6.4,9.6H7.2V10.4H6.4zM7.2,9.6H8V10.4H7.2zM8.8,9.6H9.6V10.4H8.8zM9.6,9.6H10.4V10.4H9.6zM11.2,9.6H12V10.4H11.2zM12,9.6H12.8V10.4H12zM13.6,9.6H14.4V10.4H13.6zM14.4,9.6H15.2V10.4H14.4zM18.4,9.6H19.2V10.4H18.4zM19.2,9.6H20V10.4H19.2zM20.8,9.6H21.6V10.4H20.8zM2.4,10.4H3.2V11.2H2.4zM3.2,10.4H4V11.2H3.2zM7.2,10.4H8V11.2H7.2zM9.6,10.4H10.4V11.2H9.6zM14.4,10.4H15.2V11.2H14.4zM15.2,10.4H16V11.2H15.2zM16,10.4H16.8V11.2H16zM17.6,10.4H18.4V11.2H17.6zM18.4,10.4H19.2V11.2H18.4zM1.6,11.2H2.4V12H1.6zM3.2,11.2H4V12H3.2zM4.8,11.2H5.6V12H4.8zM5.6,11.2H6.4V12H5.6zM6.4,11.2H7.2V12H6.4zM11.2,11.2H12V12H11.2zM14.4,11.2H15.2V12H14.4zM16,11.2H16.8V12H16zM16.8,11.2H17.6V12H16.8zM20.8,11.2H21.6V12H20.8zM4,12H4.8V12.8H4zM8.8,12H9.6V12.8H8.8zM13.6,12H14.4V12.8H13.6zM14.4,12H15.2V12.8H14.4zM16,12H16.8V12.8H16zM16.8,12H17.6V12.8H16.8zM20,12H20.8V12.8H20zM20.8,12H21.6V12.8H20.8zM1.6,12.8H2.4V13.6H1.6zM2.4,12.8H3.2V13.6H2.4zM4.8,12.8H5.6V13.6H4.8zM5.6,12.8H6.4V13.6H5.6zM6.4,12.8H7.2V13.6H6.4zM7.2,12.8H8V13.6H7.2zM8.8,12.8H9.6V13.6H8.8zM9.6,12.8H10.4V13.6H9.6zM10.4,12.8H11.2V13.6H10.4zM12,12.8H12.8V13.6H12zM13.6,12.8H14.4V13.6H13.6zM16,12.8H16.8V13.6H16zM18.4,12.8H19.2V13.6H18.4zM19.2,12.8H20V13.6H19.2zM20.8,12.8H21.6V13.6H20.8zM3.2,13.6H4V14.4H3.2zM4,13.6H4.8V14.4H4zM5.6,13.6H6.4V14.4H5.6zM8.8,13.6H9.6V14.4H8.8zM9.6,13.6H10.4V14.4H9.6zM11.2,13.6H12V14.4H11.2zM12.8,13.6H13.6V14.4H12.8zM14.4,13.6H15.2V14.4H14.4zM15.2,13.6H16V14.4H15.2zM16,13.6H16.8V14.4H16zM16.8,13.6H17.6V14.4H16.8zM17.6,13.6H18.4V14.4H17.6zM18.4,13.6H19.2V14.4H18.4zM1.6,14.4H2.4V15.2H1.6zM2.4,14.4H3.2V15.2H2.4zM3.2,14.4H4V15.2H3.2zM4,14.4H4.8V15.2H4zM4.8,14.4H5.6V15.2H4.8zM5.6,14.4H6.4V15.2H5.6zM6.4,14.4H7.2V15.2H6.4zM8,14.4H8.8V15.2H8zM9.6,14.4H10.4V15.2H9.6zM11.2,14.4H12V15.2H11.2zM13.6,14.4H14.4V15.2H13.6zM14.4,14.4H15.2V15.2H14.4zM15.2,14.4H16V15.2H15.2zM16,14.4H16.8V15.2H16zM16.8,14.4H17.6V15.2H16.8zM17.6,14.4H18.4V15.2H17.6zM20,14.4H20.8V15.2H20zM8,15.2H8.8V16H8zM10.4,15.2H11.2V16H10.4zM11.2,15.2H12V16H11.2zM12.8,15.2H13.6V16H12.8zM14.4,15.2H15.2V16H14.4zM17.6,15.2H18.4V16H17.6zM20.8,15.2H21.6V16H20.8zM1.6,16H2.4V16.8H1.6zM2.4,16H3.2V16.8H2.4zM3.2,16H4V16.8H3.2zM4,16H4.8V16.8H4zM4.8,16H5.6V16.8H4.8zM5.6,16H6.4V16.8H5.6zM6.4,16H7.2V16.8H6.4zM8,16H8.8V16.8H8zM9.6,16H10.4V16.8H9.6zM10.4,16H11.2V16.8H10.4zM12.8,16H13.6V16.8H12.8zM14.4,16H15.2V16.8H14.4zM16,16H16.8V16.8H16zM17.6,16H18.4V16.8H17.6zM20.8,16H21.6V16.8H20.8zM1.6,16.8H2.4V17.6H1.6zM6.4,16.8H7.2V17.6H6.4zM10.4,16.8H11.2V17.6H10.4zM11.2,16.8H12V17.6H11.2zM12.8,16.8H13.6V17.6H12.8zM13.6,16.8H14.4V17.6H13.6zM14.4,16.8H15.2V17.6H14.4zM17.6,16.8H18.4V17.6H17.6zM20.8,16.8H21.6V17.6H20.8zM1.6,17.6H2.4V18.4H1.6zM3.2,17.6H4V18.4H3.2zM4,17.6H4.8V18.4H4zM4.8,17.6H5.6V18.4H4.8zM6.4,17.6H7.2V18.4H6.4zM8.8,17.6H9.6V18.4H8.8zM9.6,17.6H10.4V18.4H9.6zM11.2,17.6H12V18.4H11.2zM12.8,17.6H13.6V18.4H12.8zM13.6,17.6H14.4V18.4H13.6zM14.4,17.6H15.2V18.4H14.4zM15.2,17.6H16V18.4H15.2zM16,17.6H16.8V18.4H16zM16.8,17.6H17.6V18.4H16.8zM17.6,17.6H18.4V18.4H17.6zM20,17.6H20.8V18.4H20zM1.6,18.4H2.4V19.2H1.6zM3.2,18.4H4V19.2H3.2zM4,18.4H4.8V19.2H4zM4.8,18.4H5.6V19.2H4.8zM6.4,18.4H7.2V19.2H6.4zM9.6,18.4H10.4V19.2H9.6zM10.4,18.4H11.2V19.2H10.4zM11.2,18.4H12V19.2H11.2zM12,18.4H12.8V19.2H12zM13.6,18.4H14.4V19.2H13.6zM14.4,18.4H15.2V19.2H14.4zM15.2,18.4H16V19.2H15.2zM17.6,18.4H18.4V19.2H17.6zM19.2,18.4H20V19.2H19.2zM20,18.4H20.8V19.2H20zM1.6,19.2H2.4V20H1.6zM3.2,19.2H4V20H3.2zM4,19.2H4.8V20H4zM4.8,19.2H5.6V20H4.8zM6.4,19.2H7.2V20H6.4zM8,19.2H8.8V20H8zM8.8,19.2H9.6V20H8.8zM9.6,19.2H10.4V20H9.6zM10.4,19.2H11.2V20H10.4zM14.4,19.2H15.2V20H14.4zM16.8,19.2H17.6V20H16.8zM17.6,19.2H18.4V20H17.6zM18.4,19.2H19.2V20H18.4zM20,19.2H20.8V20H20zM20.8,19.2H21.6V20H20.8zM1.6,20H2.4V20.8H1.6zM6.4,20H7.2V20.8H6.4zM8.8,20H9.6V20.8H8.8zM10.4,20H11.2V20.8H10.4zM13.6,20H14.4V20.8H13.6zM14.4,20H15.2V20.8H14.4zM16.8,20H17.6V20.8H16.8zM17.6,20H18.4V20.8H17.6zM1.6,20.8H2.4V21.6H1.6zM2.4,20.8H3.2V21.6H2.4zM3.2,20.8H4V21.6H3.2zM4,20.8H4.8V21.6H4zM4.8,20.8H5.6V21.6H4.8zM5.6,20.8H6.4V21.6H5.6zM6.4,20.8H7.2V21.6H6.4zM8,20.8H8.8V21.6H8zM10.4,20.8H11.2V21.6H10.4zM11.2,20.8H12V21.6H11.2zM14.4,20.8H15.2V21.6H14.4zM18.4,20.8H19.2V21.6H18.4zM20.8,20.8H21.6V21.6H20.8z" id="qr-path" fill="#000000" fill-opacity="1" fill-rule="nonzero" stroke="none"/></svg>