<?xml version="1.0" encoding="UTF-8" standalone="no"?>
<!-- Created with Inkscape (http://www.inkscape.org/) -->

<svg
   width="1024"
   height="1024"
   viewBox="0 0 270.93333 270.93333"
   version="1.1"
   id="svg5"
   sodipodi:docname="fav.svg"
   inkscape:version="1.2.2 (b0a8486541, 2022-12-01)"
   xmlns:inkscape="http://www.inkscape.org/namespaces/inkscape"
   xmlns:sodipodi="http://sodipodi.sourceforge.net/DTD/sodipodi-0.dtd"
   xmlns="http://www.w3.org/2000/svg"
   xmlns:svg="http://www.w3.org/2000/svg">
  <sodipodi:namedview
     id="namedview8"
     pagecolor="#ffffff"
     bordercolor="#000000"
     borderopacity="0.25"
     inkscape:showpageshadow="2"
     inkscape:pageopacity="0.0"
     inkscape:pagecheckerboard="0"
     inkscape:deskcolor="#d1d1d1"
     showgrid="false"
     inkscape:zoom="0.1809082"
     inkscape:cx="-2078.4022"
     inkscape:cy="251.50878"
     inkscape:window-width="1728"
     inkscape:window-height="920"
     inkscape:window-x="0"
     inkscape:window-y="28"
     inkscape:window-maximized="1"
     inkscape:current-layer="svg5" />
  <defs
     id="defs2" />
  <g
     id="layer1"
     style="fill:#000000;stroke:none"
     transform="translate(0,-1.5258789e-5)">
    <circle
       style="opacity:1;fill:#000000;fill-opacity:1;stroke-width:0;stroke-linecap:round;stroke:none"
       id="path2237"
       cx="135.46666"
       cy="135.46667"
       r="135.46666" />
  </g>
  <g
     aria-label="k
"
     id="text842"
     style="font-weight:bold;font-size:4.23333px;font-family:Supermercado;-inkscape-font-specification:'Supermercado Bold';fill:#ffffff;stroke-width:7.274;stroke-linecap:round"
     transform="matrix(15.230664,0,0,15.230664,6803.2731,-896.54183)">
    <path
       d="m -436.05868,68.98898 q 1.63366,0.660796 1.63366,2.432099 v 2.202653 q 0,0.44971 -0.22955,0.669973 -0.62409,0.605732 -1.28489,0.312044 -0.66996,-0.284516 -0.66996,-0.982017 v -2.175121 q 0,-0.458887 -0.22954,-0.688329 -0.40404,-0.403818 -0.84436,-0.403818 h -1.06458 v 3.267272 q 0,0.440537 -0.23887,0.669974 -0.39472,0.403818 -0.7342,0.403818 -0.33966,0 -0.5415,-0.09177 -0.20202,-0.08258 -0.34898,-0.220268 -0.32102,-0.312043 -0.32102,-0.761753 V 61.499956 q 0,-0.449709 0.23843,-0.69751 0.38539,-0.403818 0.86269,-0.403818 0.45892,0 0.67919,0.238605 0.40404,0.413009 0.40404,0.86271 v 7.204513 h 0.66076 l 1.72543,-3.560956 q 0.12832,-0.293706 0.40404,-0.449709 0.27528,-0.165213 0.55984,-0.165213 0.2846,0 0.5415,0.137685 0.25708,0.128493 0.40404,0.394627 0.15585,0.266133 0.15585,0.559844 0,0.284515 -0.12832,0.513952 z"
       id="path950"
       style="stroke-width:32.2966" />
  </g>
</svg>
